<?xml version="1.0" standalone="no"?>
<!DOCTYPE svg PUBLIC "-//W3C//DTD SVG 20010904//EN"
 "http://www.w3.org/TR/2001/REC-SVG-20010904/DTD/svg10.dtd">
<svg version="1.0" xmlns="http://www.w3.org/2000/svg"
 width="911.000000pt" height="911.000000pt" viewBox="0 0 911.000000 911.000000"
 preserveAspectRatio="xMidYMid meet">

<g transform="translate(0.000000,911.000000) scale(0.100000,-0.100000)"
fill="#000000" stroke="none">
<path d="M4320 9104 c-568 -38 -1029 -142 -1513 -343 -844 -350 -1562 -948
-2070 -1723 -804 -1228 -960 -2795 -415 -4163 464 -1165 1389 -2092 2548
-2553 723 -288 1507 -384 2290 -282 1279 168 2452 897 3175 1975 620 924 879
2029 735 3136 -149 1151 -734 2198 -1640 2936 -686 559 -1512 902 -2400 998
-137 15 -590 27 -710 19z m476 -204 c947 -55 1821 -398 2544 -999 139 -115
438 -412 541 -536 718 -864 1078 -1929 1020 -3017 -38 -713 -206 -1299 -554
-1929 -64 -116 -233 -379 -244 -379 -3 0 -2 22 2 49 5 40 4 49 -11 55 -16 6
-15 8 3 29 11 12 29 39 38 60 l18 39 -26 24 c-14 13 -33 24 -42 24 -11 0 -15
7 -13 23 2 17 9 21 29 19 35 -4 79 14 79 33 0 8 4 15 9 15 13 0 19 59 7 69 -9
6 -89 1 -163 -10 -22 -4 -22 -39 0 -54 18 -13 19 -15 4 -15 -13 0 -16 -4 -9
-17 7 -16 8 -42 3 -97 0 -8 -15 -18 -32 -21 -23 -5 -28 -9 -18 -16 10 -6 8 -9
-8 -9 -13 0 -23 -4 -23 -10 0 -5 4 -10 9 -10 12 0 22 -27 15 -44 -3 -8 -15
-16 -26 -19 -15 -4 -19 -11 -15 -26 3 -12 1 -21 -4 -21 -5 0 -9 -7 -9 -15 0
-8 -5 -15 -11 -15 -20 0 18 206 45 239 8 11 8 13 -1 7 -18 -10 -13 21 14 94 4
8 5 19 4 23 -2 11 22 145 53 292 14 66 26 137 26 157 0 37 -13 57 -25 38 -11
-17 -25 -11 -25 11 0 16 4 20 18 15 13 -6 12 -2 -5 15 -26 27 -76 31 -623 49
-190 6 -353 13 -362 16 -19 6 -19 7 -43 119 -9 44 -21 98 -27 120 -5 22 -17
79 -25 126 -15 83 -15 87 6 129 11 24 21 56 21 70 0 32 -51 137 -84 173 -13
14 -31 52 -41 84 -10 32 -26 77 -36 100 -11 24 -19 45 -19 48 0 15 -106 158
-128 173 -15 9 -34 24 -43 32 -9 8 -35 32 -58 53 -22 20 -41 42 -41 47 0 6 -6
10 -13 10 -7 0 -30 16 -51 35 -21 19 -44 35 -51 35 -8 0 -15 3 -17 8 -5 12
-91 72 -102 72 -16 0 -141 66 -191 100 -24 17 -48 30 -54 30 -6 0 -53 27 -105
60 -72 46 -108 63 -151 70 -32 5 -61 8 -65 5 -3 -2 -40 4 -81 14 -97 24 -158
31 -165 20 -3 -5 3 -9 13 -9 15 0 16 -2 3 -10 -11 -7 -7 -10 19 -10 26 0 32
-3 27 -16 -4 -12 -2 -15 9 -10 8 3 15 1 15 -4 0 -6 6 -10 14 -10 15 0 29 -27
21 -41 -3 -5 -1 -18 5 -29 9 -17 14 -19 26 -9 11 9 14 8 14 -5 0 -9 -7 -16
-15 -16 -13 0 -14 -4 -4 -22 12 -22 12 -22 20 -3 6 17 8 17 8 3 1 -11 9 -18
21 -18 13 0 20 -7 20 -19 0 -11 7 -27 16 -35 14 -15 12 -19 -21 -51 -20 -20
-33 -40 -30 -45 3 -6 2 -10 -4 -10 -6 0 -7 -8 -4 -17 5 -12 2 -15 -9 -10 -12
4 -17 -3 -22 -24 -7 -35 -26 -30 -26 6 0 22 -23 55 -38 55 -4 0 -13 -10 -21
-22 -13 -21 -14 -20 -37 27 -12 27 -21 52 -18 57 6 9 34 -16 34 -31 0 -5 5
-13 11 -17 7 -4 10 4 8 22 -2 16 1 35 6 43 5 10 4 16 -3 19 -7 2 -12 24 -12
53 0 42 3 49 20 49 11 0 20 -5 20 -11 0 -5 5 -7 10 -4 12 7 13 55 2 70 -4 6
-16 11 -27 13 -42 6 -48 11 -35 27 10 12 10 15 -3 15 -8 0 -17 -6 -20 -12 -8
-25 -37 13 -37 48 0 32 -33 70 -51 59 -4 -3 -9 2 -13 10 -3 8 -12 15 -20 15
-8 0 -19 6 -23 14 -4 7 -27 23 -50 35 -23 11 -48 31 -54 44 -7 12 -24 38 -39
57 -29 36 -49 100 -32 100 24 0 106 201 151 372 36 134 36 138 16 138 -9 0
-15 -9 -15 -22 0 -21 -46 -128 -60 -138 -14 -10 -18 -39 -7 -43 15 -5 4 -18
-17 -21 -9 -1 -16 -6 -15 -11 0 -4 -5 -11 -13 -16 -8 -5 -13 -28 -13 -61 0
-51 -1 -53 -30 -58 -20 -3 -30 -11 -30 -23 0 -9 -9 -23 -20 -31 -11 -7 -31
-39 -45 -70 -27 -60 -57 -79 -91 -58 -15 9 -19 5 -33 -29 -19 -48 -19 -49 -2
-49 12 0 14 -15 7 -52 0 -5 -10 -8 -21 -8 -12 0 -20 -7 -20 -16 0 -8 -17 -33
-39 -54 l-38 -38 30 -27 31 -26 63 66 c35 37 63 69 63 72 0 3 10 15 23 27 12
11 32 34 44 51 12 16 24 27 27 24 6 -5 -18 -278 -30 -339 -4 -19 -15 -49 -25
-66 -20 -33 -17 -58 16 -122 23 -44 32 -112 15 -112 -9 0 -11 -15 -6 -60 7
-61 -3 -100 -27 -100 -30 0 -34 -20 -16 -74 10 -30 28 -71 40 -90 15 -26 20
-46 15 -66 -8 -43 -35 -80 -58 -80 -19 0 -20 -4 -13 -57 3 -32 13 -68 22 -81
10 -16 12 -36 8 -60 -8 -48 26 -192 64 -275 16 -34 47 -80 70 -102 23 -22 50
-56 61 -76 10 -20 42 -61 70 -92 l51 -56 -46 -7 c-41 -6 -520 11 -570 21 -11
2 -43 4 -72 4 -49 1 -53 3 -67 34 -9 17 -17 46 -19 62 -1 17 -11 45 -20 63
-10 18 -15 37 -12 42 4 6 -1 47 -10 92 -11 53 -14 83 -7 86 6 2 8 30 6 67 -2
38 1 65 6 65 6 0 10 10 10 23 0 30 30 47 77 41 21 -2 31 -1 23 2 -8 4 -18 12
-22 17 -4 8 -14 8 -30 0 -13 -5 -32 -7 -43 -3 -11 4 -23 3 -26 -3 -4 -5 -15
-1 -26 10 -29 29 -149 39 -175 16 -10 -9 -17 -24 -16 -32 1 -9 -1 -22 -5 -28
-5 -7 -8 -70 -8 -140 0 -131 -20 -262 -43 -286 -7 -7 -15 -32 -19 -56 -3 -24
-11 -49 -17 -55 -9 -9 -329 -13 -560 -7 -58 2 -65 11 -49 65 8 27 19 46 28 46
8 0 22 7 31 15 14 13 23 13 46 4 16 -6 41 -13 56 -15 24 -3 28 0 33 34 7 41
25 82 36 82 4 0 7 -6 6 -12 -1 -29 3 -48 11 -46 26 5 60 -16 66 -42 3 -16 15
-34 26 -40 19 -10 20 -9 17 24 -4 38 -22 66 -43 66 -22 0 -16 20 9 30 21 9 22
9 1 9 -17 1 -23 9 -28 39 -9 58 -7 87 8 117 10 19 11 36 5 57 -7 25 -6 28 6
18 12 -10 15 -9 15 9 0 13 4 19 11 16 6 -4 8 -13 5 -21 -8 -21 2 -17 28 11 13
14 29 25 37 25 8 0 6 6 -7 14 -17 12 -20 24 -18 83 1 37 5 96 9 131 l6 63 -30
-22 c-30 -22 -61 -20 -61 4 0 7 -9 30 -20 52 -25 48 -25 59 -2 93 10 15 22 35
27 45 8 14 25 20 72 23 37 2 64 0 68 -6 4 -6 15 0 27 15 10 14 28 25 38 25 11
0 23 6 27 14 12 20 48 36 84 36 19 0 37 7 45 18 13 16 13 16 14 -1 0 -10 5
-15 11 -12 7 5 5 13 -6 25 -16 17 -13 22 47 82 49 49 64 59 66 45 2 -10 11
-17 20 -16 9 1 25 -1 35 -6 10 -4 24 -2 33 6 16 13 47 79 40 86 -7 7 -166 -19
-172 -28 -7 -12 -71 -11 -94 1 -15 8 -21 5 -32 -20 -12 -29 -57 -58 -118 -75
-14 -4 -28 -12 -31 -17 -3 -5 -23 -11 -45 -15 -21 -3 -49 -16 -61 -28 -12 -13
-28 -26 -35 -29 -10 -5 -10 -7 0 -12 21 -10 13 -29 -13 -30 -25 -2 -33 10 -16
20 5 3 12 31 16 61 3 30 13 61 21 69 8 8 14 18 14 23 1 4 14 19 30 33 17 13
30 30 30 36 0 16 40 30 100 33 14 1 40 43 40 64 0 5 14 25 30 44 17 19 30 45
30 60 0 15 7 34 16 44 14 16 20 16 62 3 59 -17 72 -18 72 0 0 7 10 20 23 29
40 26 94 83 111 115 16 30 16 32 -2 32 -10 0 -33 -13 -52 -30 -19 -16 -39 -29
-44 -30 -5 0 -42 -17 -83 -37 -71 -36 -74 -36 -87 -17 -16 21 -29 14 -50 -28
-8 -15 -19 -22 -33 -20 -16 2 -22 -3 -25 -20 -2 -15 -16 -29 -38 -40 -19 -10
-45 -29 -57 -43 -12 -14 -26 -25 -32 -25 -5 0 -18 -10 -28 -23 -10 -13 -27
-28 -38 -35 -12 -7 -15 -12 -6 -12 11 0 11 -3 1 -15 -7 -8 -16 -15 -21 -15
-10 0 -24 48 -21 72 6 34 62 137 82 148 11 6 23 22 26 35 3 14 12 25 19 25 8
0 16 8 19 18 3 10 19 26 36 35 16 10 30 24 30 31 0 7 10 21 21 32 12 10 32 42
45 70 28 62 44 76 80 72 23 -2 28 2 35 26 10 37 34 63 65 70 17 5 24 13 22 24
-1 9 5 27 13 40 14 19 17 20 23 7 4 -10 11 -13 18 -8 7 4 33 9 58 9 25 1 83 7
129 14 61 9 95 9 127 1 23 -6 55 -11 69 -11 15 0 42 -12 60 -26 34 -26 76 -30
103 -11 16 13 15 87 -3 111 -8 10 -22 19 -32 20 -10 1 -34 9 -53 18 -19 9 -54
20 -77 25 -37 9 -43 8 -43 -6 -1 -14 -2 -14 -13 -1 -18 22 -84 70 -96 70 -6 0
-20 -6 -31 -12 -17 -11 -22 -9 -35 10 -9 12 -25 22 -35 22 -46 0 -66 30 -38
58 16 16 2 26 -44 31 -5 1 -8 8 -8 16 0 8 -4 15 -10 15 -21 0 -41 62 -40 123
2 100 4 113 23 131 17 17 21 29 18 54 -1 8 3 19 9 27 6 7 13 37 15 66 3 30 8
67 11 82 6 31 46 62 68 54 7 -3 19 0 25 6 8 8 17 7 36 -3 33 -17 32 -40 -1
-40 l-25 0 20 -29 c27 -38 112 -211 139 -281 39 -105 35 -98 39 -73 3 12 -1
32 -8 45 -7 12 -15 37 -20 56 l-7 33 31 -21 c49 -32 76 -44 84 -36 5 4 -1 12
-12 18 -11 6 -39 30 -61 52 -34 34 -47 58 -73 139 -17 53 -31 111 -31 128 0
49 27 88 73 108 51 22 137 35 137 21 0 -6 -4 -10 -10 -10 -11 0 -13 -33 -4
-78 4 -21 13 -32 27 -34 25 -4 35 -28 12 -28 -27 0 -11 -25 18 -28 17 -2 29 2
33 11 10 27 88 102 102 99 7 -2 20 3 29 10 12 10 17 9 28 -5 7 -9 16 -17 20
-17 13 0 61 57 57 68 -4 13 67 4 86 -11 19 -15 14 -29 -22 -67 -58 -59 -84
-79 -91 -72 -8 8 -35 -26 -35 -45 0 -7 9 -12 19 -10 26 4 126 84 142 114 9 17
15 20 26 12 19 -17 16 -87 -9 -160 -34 -103 -89 -176 -152 -203 -17 -7 -42
-18 -56 -24 -21 -9 -22 -11 -5 -11 26 1 105 30 131 49 37 28 91 109 114 172
15 42 34 72 56 91 19 16 34 35 34 43 0 8 7 14 15 14 27 0 46 47 52 124 4 49 2
76 -4 76 -10 0 -16 -18 -43 -128 l-11 -43 -35 26 c-19 14 -39 23 -44 20 -13
-8 -13 65 0 85 7 12 10 11 15 -5 22 -69 45 -88 45 -38 0 14 3 23 7 20 7 -8 33
46 33 69 0 7 -6 11 -14 8 -18 -7 -36 25 -36 64 0 41 30 124 44 119 15 -5 20
-65 6 -82 -14 -17 -3 -62 12 -47 6 6 11 48 12 93 2 53 7 84 14 87 17 5 15 29
-3 36 -11 4 -14 13 -9 33 4 16 10 30 14 33 3 3 14 28 24 55 20 57 48 118 57
125 10 8 23 54 20 69 -2 8 3 20 11 25 26 21 38 67 38 145 0 64 4 82 20 101 11
13 20 26 21 29 0 3 3 18 5 33 3 16 -5 50 -17 77 -20 47 -20 52 -6 103 20 69 2
199 -24 182 -5 -3 -9 2 -9 11 0 17 -28 77 -40 85 -4 3 -24 30 -45 60 -63 90
-156 163 -196 153 -20 -5 -22 -3 -11 8 14 16 16 29 3 29 -22 0 -103 64 -151
121 -61 69 -84 83 -162 98 -32 5 -75 19 -97 30 -22 12 -75 33 -118 48 -70 24
-94 27 -237 29 -87 1 -188 8 -222 15 -77 15 -159 3 -272 -42 -41 -16 -81 -29
-90 -29 -21 0 -112 -41 -112 -51 0 -4 -16 -13 -36 -19 -48 -16 -101 -53 -143
-98 -54 -60 -65 -82 -70 -135 -1 -5 -5 -6 -10 -3 -11 7 -51 -58 -54 -87 -2
-23 -39 -67 -56 -67 -6 0 -11 -5 -11 -11 0 -6 -15 -10 -32 -9 -67 4 -75 -7
-52 -72 15 -42 14 -43 -11 -61 -15 -11 -25 -28 -25 -43 0 -13 -5 -24 -11 -24
-11 0 -10 -19 3 -142 1 -10 5 -18 9 -18 3 0 12 -19 19 -42 7 -24 17 -46 23
-49 13 -9 27 -101 17 -114 -4 -5 -4 -19 1 -30 4 -11 8 -32 8 -48 1 -15 5 -35
10 -45 5 -9 19 -57 31 -107 12 -49 28 -107 36 -127 18 -50 45 -170 40 -176 -3
-2 -21 3 -40 12 -42 20 -83 6 -92 -31 -21 -84 10 -477 45 -562 33 -83 55 -108
110 -126 73 -24 63 2 112 -285 12 -69 37 -171 56 -226 l34 -102 -63 -65 c-46
-47 -73 -67 -98 -72 -62 -12 -200 -84 -212 -111 -19 -41 -58 -54 -136 -43 -37
5 -78 13 -92 18 -14 5 -57 17 -96 27 -71 17 -71 17 -118 -5 -25 -13 -51 -32
-57 -42 -5 -10 -17 -19 -25 -19 -36 0 -328 -77 -424 -111 -18 -7 -61 -28 -95
-47 -33 -19 -81 -45 -107 -58 -26 -13 -50 -29 -55 -37 -4 -7 -36 -34 -70 -61
-72 -54 -166 -172 -208 -261 -16 -33 -55 -102 -88 -153 -94 -150 -100 -169
-99 -301 2 -82 -2 -119 -11 -130 -7 -9 -26 -50 -42 -91 -15 -41 -36 -93 -45
-115 -45 -106 -59 -142 -65 -164 -13 -46 -7 -92 18 -129 13 -20 34 -54 45 -75
l22 -38 -26 -9 c-15 -6 -223 -10 -515 -10 -454 1 -491 -1 -514 -17 -54 -40
-58 -84 -26 -338 10 -82 17 -152 15 -154 -2 -2 -24 40 -50 95 -427 917 -524
1938 -278 2919 263 1048 933 1986 1844 2578 600 389 1299 631 1990 687 257 21
399 23 626 10z m-456 -750 c12 -8 9 -10 -13 -10 -16 0 -26 4 -22 10 8 12 16
12 35 0z m-180 -70 c0 -5 -4 -10 -10 -10 -5 0 -10 5 -10 10 0 6 5 10 10 10 6
0 10 -4 10 -10z m-135 -50 c8 -13 -24 -60 -41 -60 -17 0 -17 0 2 38 16 33 28
40 39 22z m785 -14 c-25 -15 -45 -12 -35 5 4 5 18 9 33 9 l27 -1 -25 -13z
m320 -51 c0 -21 -17 -27 -24 -9 -10 25 -7 34 9 28 8 -4 15 -12 15 -19z m-1305
-60 c0 -13 -6 -30 -12 -37 -7 -6 -13 -18 -13 -25 0 -7 -4 -13 -10 -13 -5 0
-10 -7 -10 -15 0 -8 -7 -15 -15 -15 -22 0 -19 11 15 61 16 24 30 50 30 57 0 6
4 12 8 12 4 0 8 -11 7 -25z m1200 -44 c3 -5 1 -12 -5 -16 -5 -3 -10 1 -10 9 0
18 6 21 15 7z m82 -8 c4 -10 14 -23 22 -30 30 -22 3 -24 -35 -2 -51 30 -51 29
-34 39 23 15 40 12 47 -7z m-1397 -64 c0 -11 -4 -18 -9 -14 -18 11 -24 -18 -6
-31 24 -17 15 -36 -19 -40 -26 -3 -27 -1 -21 24 4 15 8 33 9 41 2 12 33 41 43
41 2 0 3 -9 3 -21z m1185 -87 c0 -18 -20 -15 -23 4 -3 10 1 15 10 12 7 -3 13
-10 13 -16z m425 -39 c0 -10 -5 -25 -10 -33 -7 -11 -10 -7 -10 18 0 17 5 32
10 32 6 0 10 -8 10 -17z m-212 -20 c2 -8 -6 -13 -22 -13 -26 0 -40 12 -29 24
11 11 46 2 51 -11z m-175 -8 c8 -19 -13 -31 -24 -14 -13 20 -11 29 5 29 8 0
16 -7 19 -15z m412 -45 c10 -11 16 -22 13 -25 -2 -3 -14 6 -26 20 -26 30 -13
34 13 5z m-220 -31 c8 -25 -8 -39 -47 -39 -23 0 -28 -4 -28 -25 0 -14 -4 -25
-10 -25 -5 0 -10 8 -10 18 0 9 -3 27 -6 40 -5 18 -2 22 19 22 14 0 27 7 31 15
8 23 44 18 51 -6z m293 -7 c2 -7 -3 -12 -12 -12 -9 0 -16 7 -16 16 0 17 22 14
28 -4z m-581 -74 c-3 -8 -6 -5 -6 6 -1 11 2 17 5 13 3 -3 4 -12 1 -19z m373
-68 c0 -5 -5 -10 -11 -10 -5 0 -7 5 -4 10 3 6 8 10 11 10 2 0 4 -4 4 -10z m90
-35 c0 -8 -4 -15 -10 -15 -5 0 -10 7 -10 15 0 8 5 15 10 15 6 0 10 -7 10 -15z
m-1795 -84 c-2 -1 -8 0 -14 4 -13 7 -14 35 -4 62 6 14 9 8 14 -22 4 -22 5 -42
4 -44z m1886 19 c26 -14 24 -32 -3 -28 -13 2 -24 11 -26 21 -4 20 2 21 29 7z
m87 -114 c4 -19 -19 -21 -36 -4 -7 7 -12 21 -12 31 0 18 2 18 23 5 12 -9 23
-23 25 -32z m-243 16 c0 -18 -20 -15 -23 4 -3 10 1 15 10 12 7 -3 13 -10 13
-16z m-826 -91 c11 -15 23 -39 26 -54 9 -32 22 -42 38 -29 7 6 38 10 69 9 38
-1 59 2 63 11 6 17 32 15 39 -3 8 -21 26 -19 67 9 27 19 39 22 48 13 14 -14
15 -44 1 -52 -18 -11 12 -45 36 -39 15 4 26 0 33 -13 10 -17 10 -17 11 0 0 9
4 17 9 17 5 0 17 3 27 7 14 5 16 2 12 -15 -6 -22 7 -32 14 -12 3 10 24 -27 47
-83 9 -24 14 -26 32 -17 11 7 23 9 27 6 3 -3 1 -6 -5 -6 -6 0 -13 -9 -16 -20
-3 -11 -1 -20 4 -20 15 0 10 -22 -8 -36 -17 -13 -17 -15 0 -25 23 -14 22 -28
-3 -22 -23 6 -24 4 -10 -31 6 -16 15 -24 24 -20 15 6 43 -33 32 -44 -3 -3 -6
-1 -6 5 0 6 -9 13 -20 16 -24 6 -25 -2 -5 -29 8 -10 15 -28 15 -40 0 -13 11
-26 28 -33 15 -8 36 -18 46 -23 17 -9 18 -7 13 34 -4 23 -9 64 -13 91 -8 57
10 66 21 10 9 -51 29 -87 59 -107 24 -15 27 -15 47 5 22 22 22 22 36 3 13 -17
15 -18 24 -2 5 9 24 20 42 23 17 4 37 11 43 16 17 14 43 -22 52 -72 4 -24 4
-80 1 -124 -4 -44 -5 -97 -2 -117 5 -32 -22 -178 -33 -178 -14 0 -62 29 -76
46 -10 12 -39 34 -65 49 l-47 28 23 18 c12 10 43 21 69 24 26 3 54 7 62 8 23
3 24 41 2 61 -19 16 -22 16 -63 -3 -28 -13 -75 -22 -129 -26 -47 -3 -142 -13
-213 -23 -100 -15 -130 -23 -142 -38 -11 -15 -16 -16 -23 -6 -7 10 -14 11 -35
1 -15 -7 -27 -18 -27 -25 0 -7 -8 -10 -20 -7 -14 4 -21 -1 -26 -21 -6 -25 -10
-27 -53 -24 -49 2 -121 26 -121 40 0 4 -9 8 -20 8 -11 0 -20 5 -20 10 0 6 -4
10 -10 10 -5 0 -26 11 -46 25 -20 13 -51 27 -70 31 -19 3 -34 10 -34 15 0 5
-7 9 -16 9 -19 0 -44 24 -44 42 0 10 -3 9 -10 -2 -7 -10 -10 -11 -11 -2 -1 6
-3 17 -4 22 -1 6 -3 13 -4 16 0 3 -8 -2 -17 -10 -15 -15 -34 -21 -34 -11 0 10
39 43 44 38 3 -4 6 -4 6 0 0 3 -7 13 -16 22 -12 12 -19 13 -30 4 -10 -8 -17
-7 -28 3 -20 21 -7 36 34 40 20 2 34 8 33 15 -1 6 4 33 12 60 19 61 19 93 1
93 -8 0 -17 -6 -20 -12 -4 -7 -4 3 -2 23 2 20 0 41 -5 46 -5 5 -13 24 -18 41
-8 27 -7 32 7 33 10 1 7 4 -8 8 l-24 7 23 23 c21 21 25 22 33 7 14 -24 31 -20
22 7 -9 27 -12 69 -5 81 2 5 7 1 11 -9 13 -36 80 -23 80 15 0 11 5 20 11 20 5
0 7 5 4 10 -3 6 -17 10 -31 10 -33 0 -30 12 9 35 27 17 29 20 12 23 -10 3 -21
-1 -23 -7 -2 -6 -8 -9 -12 -6 -29 18 30 46 100 50 8 1 13 7 11 15 -2 8 -4 21
-4 29 0 12 -2 12 -11 0 -20 -25 -57 -42 -69 -30 -7 7 -6 12 6 16 9 4 13 13 11
20 -3 7 2 15 12 17 48 9 65 5 83 -21z m1142 -38 c13 -16 12 -17 -3 -4 -10 7
-18 15 -18 17 0 8 8 3 21 -13z m-101 -18 c0 -8 -4 -15 -10 -15 -5 0 -10 7 -10
15 0 8 5 15 10 15 6 0 10 -7 10 -15z m-1220 -95 c0 -5 -7 -10 -16 -10 -8 0
-12 5 -9 10 3 6 10 10 16 10 5 0 9 -4 9 -10z m798 -15 c16 -34 15 -45 -2 -45
-13 0 -26 28 -26 58 0 21 16 13 28 -13z m8 -152 c-10 -10 -19 5 -10 18 6 11 8
11 12 0 2 -7 1 -15 -2 -18z m333 -20 c6 -20 9 -39 7 -41 -6 -5 -29 39 -33 61
-6 33 16 17 26 -20z m-242 -55 c-3 -7 -5 -2 -5 12 0 14 2 19 5 13 2 -7 2 -19
0 -25z m-927 -98 c0 -5 -2 -10 -4 -10 -3 0 -8 5 -11 10 -3 6 -1 10 4 10 6 0
11 -4 11 -10z m840 -6 c0 -8 -4 -12 -10 -9 -5 3 -10 10 -10 16 0 5 5 9 10 9 6
0 10 -7 10 -16z m-1502 -251 l-3 -38 -17 34 c-10 19 -18 41 -18 49 0 9 8 24
18 35 17 19 17 19 20 -12 2 -17 2 -48 0 -68z m576 71 c5 -14 4 -15 -9 -4 -17
14 -19 20 -6 20 5 0 12 -7 15 -16z m-464 -34 c0 -13 -1 -13 -10 0 -5 8 -10 22
-10 30 0 13 1 13 10 0 5 -8 10 -22 10 -30z m-55 -87 c3 -27 13 -70 22 -98 8
-27 16 -65 18 -84 l4 -33 -29 27 c-18 17 -26 33 -23 46 4 13 0 19 -11 19 -12
0 -16 -7 -14 -20 5 -31 -16 -23 -25 10 -5 20 -1 47 13 87 11 31 20 65 20 75 0
38 18 16 25 -29z m-75 16 c0 -6 -4 -7 -10 -4 -5 3 -10 11 -10 16 0 6 5 7 10 4
6 -3 10 -11 10 -16z m530 -89 c0 -5 -4 -10 -10 -10 -5 0 -10 5 -10 10 0 6 5
10 10 10 6 0 10 -4 10 -10z m150 -80 c19 0 38 -10 55 -27 18 -20 28 -25 33
-16 13 21 66 18 100 -5 53 -38 54 -82 2 -82 -20 0 -31 6 -35 20 -9 29 -22 25
-71 -20 -24 -22 -48 -40 -54 -40 -12 0 -14 17 -2 22 4 2 6 26 4 55 l-4 52 -42
6 c-56 9 -77 21 -56 35 8 5 21 8 28 5 8 -3 27 -5 42 -5z m-110 -10 c0 -5 -7
-10 -15 -10 -8 0 -15 5 -15 10 0 6 7 10 15 10 8 0 15 -4 15 -10z m-356 -64
c-6 -17 -22 -20 -48 -10 -24 9 -20 49 7 61 18 9 24 7 34 -13 7 -12 10 -30 7
-38z m1459 51 c16 -3 31 -7 33 -10 5 -5 -66 -22 -79 -19 -4 1 -43 3 -86 3 -78
1 -108 9 -98 26 6 9 181 10 230 0z m-505 -16 c8 -5 12 -21 10 -37 -3 -28 -4
-29 -58 -27 -30 1 -65 5 -76 8 -30 7 -40 36 -18 52 20 14 122 17 142 4z m-729
-125 c7 -8 30 -17 51 -21 21 -4 41 -13 44 -21 3 -7 12 -11 21 -8 8 4 21 2 28
-4 6 -5 30 -13 52 -17 23 -5 33 -10 23 -12 -10 -3 -18 -9 -18 -14 0 -17 28 -9
58 16 34 29 48 31 56 10 3 -8 12 -15 20 -15 9 0 20 -19 29 -47 13 -45 13 -49
-5 -65 -11 -10 -17 -18 -13 -18 4 0 2 -6 -4 -13 -6 -8 -8 -16 -5 -19 8 -9 -56
-58 -75 -58 -10 0 -21 -3 -25 -7 -19 -19 -213 -22 -253 -4 -15 7 -39 18 -53
25 -25 12 -70 79 -70 105 0 11 3 11 17 0 15 -13 15 -12 4 10 -10 18 -10 25 -1
31 8 5 7 9 -5 14 -9 3 -13 10 -10 16 9 14 21 12 40 -6 14 -15 18 -14 39 7 33
32 48 44 69 52 10 4 15 11 12 17 -10 15 -35 12 -35 -5 0 -8 -4 -15 -10 -15 -5
0 -10 5 -10 10 0 6 -7 10 -15 10 -17 0 -18 2 -9 24 3 9 16 16 28 17 20 0 20 1
1 9 -15 7 -16 9 -4 9 9 1 22 -5 28 -13z m236 3 c4 -5 18 -14 31 -19 34 -13 31
-34 -3 -25 -33 8 -65 34 -57 46 7 12 21 11 29 -2z m-521 -15 c9 -24 7 -63 -5
-86 -9 -17 -13 -18 -20 -7 -7 11 -9 11 -9 1 0 -7 -5 -10 -10 -7 -6 4 -8 11 -4
16 3 6 -2 17 -12 24 -11 8 -16 15 -11 16 4 1 12 3 17 4 6 1 15 3 20 4 6 0 8
12 4 26 -4 18 -2 25 9 25 8 0 18 -7 21 -16z m766 -9 c0 -6 -13 -11 -28 -12
-26 -2 -26 -1 -7 13 20 15 37 15 35 -1z m-77 -8 c-2 -4 -5 -7 -8 -7 -3 0 -14
0 -26 0 -11 0 -17 4 -14 10 6 10 52 7 48 -3z m-473 -306 c0 -8 11 -13 60 -28
31 -9 227 -4 278 8 29 6 54 10 57 8 2 -3 6 -35 8 -73 6 -81 30 -123 69 -118
27 3 58 -20 58 -44 0 -8 -8 -14 -18 -14 -9 0 -30 -12 -45 -26 -15 -14 -34 -23
-42 -20 -8 3 -17 1 -21 -5 -3 -6 -12 -8 -19 -5 -8 3 -19 -1 -25 -8 -6 -8 -22
-16 -35 -19 -22 -4 -25 -1 -26 27 l-1 31 -11 -27 c-10 -21 -16 -24 -30 -17 -9
6 -17 16 -17 24 0 7 -10 15 -22 17 -15 2 -24 11 -26 25 -2 17 -9 21 -30 20
-17 -1 -27 3 -27 13 -2 37 -18 71 -31 66 -8 -3 -14 -1 -14 4 0 6 5 10 11 10 6
0 3 7 -5 16 -9 8 -16 23 -16 31 0 9 -7 25 -17 35 -17 19 -43 24 -43 8 0 -5 9
-10 20 -10 28 0 25 -15 -4 -18 -23 -2 -46 30 -46 63 0 8 -4 15 -10 15 -5 0
-10 5 -10 10 0 6 7 10 15 10 8 0 15 -4 15 -9z m778 -423 c8 -8 15 -8 25 0 10
8 20 8 41 -3 15 -8 30 -14 34 -13 19 4 62 -27 62 -45 0 -17 -4 -19 -32 -12
-79 18 -139 21 -158 8 -33 -23 -119 -15 -148 14 -7 7 -25 13 -40 13 -15 0 -34
4 -42 10 -13 8 -13 10 1 15 14 5 68 7 134 4 17 0 46 3 65 9 47 13 45 13 58 0z
m506 -342 c8 -34 34 -42 28 -9 -4 19 -1 24 9 21 8 -2 15 -17 17 -31 2 -15 8
-27 13 -27 5 0 9 -8 9 -19 0 -10 7 -25 17 -32 27 -23 61 -113 68 -180 6 -63 6
-64 -12 -40 -20 28 -43 87 -43 114 0 9 -7 17 -15 17 -15 0 -14 -26 5 -100 14
-53 23 -129 22 -190 0 -30 -1 -131 -2 -225 -1 -95 2 -171 7 -172 9 -3 9 -115
0 -130 -12 -20 -18 -113 -8 -113 6 0 11 12 11 28 l1 27 14 -33 c8 -18 14 -36
13 -40 -2 -8 11 -139 18 -175 2 -14 -2 -30 -11 -37 -22 -18 -18 -37 9 -44 32
-8 40 -33 16 -46 -11 -6 -20 -20 -20 -30 0 -11 -4 -20 -10 -20 -5 0 -10 4 -10
9 0 5 -16 9 -36 9 -34 0 -35 -1 -33 -36 5 -80 1 -101 -21 -95 -11 3 -20 14
-20 24 0 11 -6 19 -14 19 -9 0 -12 8 -8 25 2 14 9 25 14 25 5 0 6 -9 3 -20 -4
-11 -2 -20 4 -20 18 0 14 100 -4 106 -16 6 -21 54 -6 54 5 0 11 9 14 20 3 13
10 18 21 14 22 -9 20 3 -13 71 -16 33 -33 73 -36 88 -4 16 -32 53 -61 84 -59
60 -65 78 -33 88 14 5 19 13 16 26 -3 10 -1 19 3 19 5 0 11 8 13 18 4 14 6 14
12 -5 4 -13 12 -23 18 -23 12 0 1 90 -13 104 -6 6 -10 18 -10 28 0 10 -4 18
-9 18 -11 0 4 69 18 83 7 7 7 14 0 24 -8 9 -8 22 0 44 6 18 11 47 11 65 0 19
4 34 8 34 11 0 32 90 32 134 0 17 4 36 9 42 5 5 6 27 2 49 -12 66 -8 90 12 88
27 -2 44 41 24 61 -9 9 -23 16 -31 16 -12 0 -16 10 -16 34 0 19 -5 38 -10 41
-7 4 -6 14 1 28 9 16 9 22 0 25 -6 2 -11 14 -11 27 0 13 -4 27 -10 30 -12 8
-13 35 -1 35 5 0 12 -11 15 -24z m-1134 -59 c0 -12 -5 -29 -10 -37 -7 -11 -9
-3 -7 26 2 42 17 52 17 11z m1704 -144 c4 -9 1 -20 -6 -24 -15 -9 -38 8 -38
27 0 20 37 17 44 -3z m-514 -33 c0 -5 -4 -10 -9 -10 -6 0 -13 5 -16 10 -3 6 1
10 9 10 9 0 16 -4 16 -10z m268 -21 c10 -3 8 -10 -7 -23 -21 -19 -21 -19 -21
15 0 19 4 29 8 23 4 -6 13 -13 20 -15z m269 -22 c-19 -29 -37 -33 -37 -8 0 12
6 21 15 21 8 0 15 5 15 11 0 5 5 7 11 4 7 -5 6 -14 -4 -28z m209 -85 c7 -36
-4 -41 -30 -13 -15 16 -15 22 -4 40 15 25 25 17 34 -27z m64 14 c0 -2 -7 -6
-15 -10 -8 -3 -15 -1 -15 4 0 6 7 10 15 10 8 0 15 -2 15 -4z m-60 -66 c0 -5
-7 -10 -15 -10 -8 0 -15 5 -15 10 0 6 7 10 15 10 8 0 15 -4 15 -10z m45 0 c3
-5 -1 -10 -10 -10 -9 0 -13 5 -10 10 3 6 8 10 10 10 2 0 7 -4 10 -10z m-655
-39 c0 -17 -4 -32 -9 -35 -12 -8 -23 23 -16 45 10 29 25 22 25 -10z m-1502
-131 c5 -70 -8 -96 -40 -79 -38 21 -42 51 -13 109 33 64 47 56 53 -30z m1520
5 c3 -52 -10 -77 -30 -57 -9 9 -9 15 -1 23 6 6 9 28 5 51 -4 32 -2 40 9 36 9
-3 15 -23 17 -53z m79 43 c6 -1 17 -12 24 -25 7 -12 17 -23 22 -23 5 0 4 -6
-2 -14 -9 -10 -6 -17 14 -30 27 -18 49 -49 60 -83 5 -18 3 -22 -9 -17 -10 4
-16 1 -17 -7 -1 -8 -7 4 -13 25 -16 52 -36 59 -36 12 0 -43 -14 -46 -35 -8
-10 18 -14 21 -13 8 2 -10 -2 -21 -8 -23 -11 -4 -22 41 -29 113 -1 17 -8 40
-14 51 -13 25 -3 36 24 28 11 -4 25 -7 32 -7z m83 -18 c0 -5 -5 -10 -11 -10
-5 0 -7 5 -4 10 3 6 8 10 11 10 2 0 4 -4 4 -10z m-200 -34 c0 -3 -4 -8 -10
-11 -5 -3 -10 -1 -10 4 0 6 5 11 10 11 6 0 10 -2 10 -4z m812 -31 c0 -5 -5
-11 -11 -13 -6 -2 -11 4 -11 13 0 9 5 15 11 13 6 -2 11 -8 11 -13z m58 0 c0
-8 -7 -15 -15 -15 -9 0 -12 6 -9 15 4 8 10 15 15 15 5 0 9 -7 9 -15z m-575
-43 c0 -11 3 -24 8 -28 4 -4 7 -18 7 -31 0 -14 6 -23 15 -23 13 0 14 -4 5 -20
-14 -26 -30 -26 -30 1 0 11 -4 18 -10 14 -8 -5 -16 16 -33 92 -4 19 -1 22 16
19 14 -2 22 -10 22 -24z m635 7 c0 -6 -4 -7 -10 -4 -5 3 -10 11 -10 16 0 6 5
7 10 4 6 -3 10 -11 10 -16z m-275 -78 c4 -36 11 -72 15 -80 16 -29 30 -83 25
-92 -13 -20 -55 16 -71 60 -27 78 -33 91 -43 91 -12 0 -11 -51 2 -75 22 -39
37 -90 37 -127 0 -20 5 -40 10 -43 17 -10 11 -50 -10 -68 -11 -9 -20 -24 -20
-32 0 -8 -7 -15 -15 -15 -18 0 -35 -31 -35 -63 0 -13 -8 -35 -19 -48 -10 -13
-22 -35 -26 -49 -16 -55 -34 -71 -69 -65 -23 5 -36 2 -46 -10 -18 -22 -18 -84
1 -96 7 -5 9 -9 3 -9 -7 0 -14 -40 -18 -112 -4 -62 -10 -144 -14 -183 l-7 -70
-75 -3 c-111 -4 -151 -2 -171 8 -10 6 -29 10 -43 10 -14 0 -26 5 -26 11 0 5
-4 8 -9 4 -10 -6 -31 24 -31 44 0 5 8 12 19 16 12 4 21 19 25 46 5 29 12 43
26 46 11 3 20 9 20 14 0 5 6 9 13 9 6 0 18 4 25 9 11 7 12 12 1 29 -11 17 -9
24 14 51 14 17 29 40 32 51 4 11 11 18 16 15 5 -4 9 1 9 9 0 9 4 16 10 16 5 0
12 10 15 23 6 23 45 56 45 37 0 -5 3 -10 8 -10 4 0 8 28 10 63 2 56 6 65 37
95 20 18 35 42 35 55 0 13 5 28 12 35 17 17 41 15 34 -3 -7 -19 13 -75 27 -75
7 0 5 -5 -3 -10 -13 -9 -13 -11 0 -20 12 -7 16 -4 18 13 2 12 6 29 9 37 8 20
4 43 -10 52 -9 6 -8 8 2 8 8 0 11 6 7 16 -3 9 1 25 9 37 8 12 15 28 15 35 0 7
7 20 15 28 17 18 20 34 4 34 -5 0 -7 5 -4 10 4 6 2 17 -5 25 -8 10 -8 19 -1
34 6 11 11 31 11 44 0 13 9 34 20 47 23 26 25 36 10 45 -8 5 -7 11 1 21 6 8 8
14 4 14 -5 0 -1 8 8 18 10 11 14 26 10 40 -3 13 -1 22 6 22 6 0 11 -5 11 -11
0 -6 12 -1 27 11 36 28 49 13 58 -69z m-3524 -2 c39 -42 40 -72 2 -38 -16 13
-29 24 -29 24 -1 0 -5 10 -8 23 -10 30 1 28 35 -9z m-108 -14 c5 -17 15 -43
23 -60 11 -22 12 -39 4 -64 -5 -19 -7 -46 -4 -60 l5 -26 -25 30 c-15 17 -35
48 -46 71 -21 42 -27 114 -10 114 6 0 10 7 10 16 0 27 34 11 43 -21z m1499 8
c3 -16 4 -41 2 -58 -1 -16 -3 -38 -3 -49 -1 -13 -6 -17 -20 -13 -14 3 -21 -2
-25 -19 -8 -31 -42 -32 -50 -1 -9 34 -7 67 4 67 6 0 10 -4 10 -9 0 -5 6 -11
14 -14 11 -5 13 1 9 27 -4 25 1 42 18 65 28 38 35 39 41 4z m1523 10 c9 -26 8
-28 -20 -29 -28 -1 -29 0 -15 27 13 24 26 24 35 2z m-3205 -3 c0 -5 7 -10 15
-10 26 0 41 -46 27 -84 -15 -40 -15 -59 -1 -51 6 4 8 13 5 21 -7 17 6 25 23
15 14 -9 62 -142 55 -153 -2 -4 -23 -6 -47 -5 -41 2 -42 3 -51 47 -5 25 -12
47 -15 50 -17 15 -34 65 -35 104 -1 24 -4 42 -8 39 -16 -9 -29 8 -17 23 13 16
49 19 49 4z m4370 -19 c0 -19 -17 -38 -25 -29 -7 7 7 48 16 48 5 0 9 -9 9 -19z
m-1097 -33 c7 -21 -4 -38 -25 -38 -10 0 -17 -4 -14 -9 3 -5 15 -7 25 -4 16 4
20 -3 27 -39 11 -59 11 -63 -5 -60 -11 2 -12 -5 -6 -35 15 -69 10 -123 -14
-139 -23 -16 -28 -53 -10 -71 8 -8 9 -42 4 -108 -7 -86 -9 -95 -23 -82 -26 27
-54 128 -48 170 4 24 2 45 -5 53 -17 21 -2 82 21 89 11 4 21 9 21 13 11 65 4
89 -37 131 -20 20 -22 26 -10 35 7 6 16 23 18 38 4 21 1 28 -15 30 -31 5 -33
28 -3 28 14 0 26 -4 26 -10 0 -5 11 -10 25 -10 16 0 25 6 25 15 0 18 17 20 23
3z m187 -13 c10 0 16 -12 18 -32 4 -38 -10 -43 -26 -10 l-11 22 0 -25 c0 -14
3 -32 8 -39 7 -10 4 -23 -8 -40 -10 -15 -22 -40 -25 -58 -4 -17 -19 -44 -33
-60 l-26 -28 -10 30 c-5 17 -14 36 -20 43 -7 8 -5 12 7 12 25 0 31 29 11 44
-11 8 -16 20 -12 29 3 9 2 19 -4 22 -5 4 -7 22 -3 43 8 46 10 48 28 33 11 -9
15 -7 19 8 3 14 11 18 25 14 11 -2 23 1 28 8 6 10 9 10 13 -2 3 -8 13 -14 21
-14z m722 3 c-7 -7 -12 -8 -12 -2 0 14 12 26 19 19 2 -3 -1 -11 -7 -17z
m-2432 2 c0 -5 -4 -10 -10 -10 -5 0 -10 5 -10 10 0 6 5 10 10 10 6 0 10 -4 10
-10z m2700 -16 c0 -8 -10 -36 -22 -62 l-21 -47 -8 29 c-6 21 -3 40 8 63 16 34
43 45 43 17z m-294 -61 c-11 -11 -19 6 -11 24 8 17 8 17 12 0 3 -10 2 -21 -1
-24z m124 8 c0 -10 -9 -30 -20 -44 -11 -14 -20 -32 -20 -40 0 -9 -4 -19 -10
-22 -5 -3 -10 -17 -10 -30 0 -28 -17 -71 -42 -104 -16 -22 -18 -22 -18 -4 0
41 -81 58 -89 18 -3 -17 -1 -18 13 -6 13 11 22 11 41 3 29 -13 31 -21 10 -48
-8 -10 -15 -32 -15 -49 0 -16 -4 -36 -9 -44 -8 -13 -12 -13 -26 -1 -15 12 -16
11 -9 -15 5 -21 4 -27 -7 -23 -8 3 -16 15 -17 29 -5 34 -15 41 -38 24 -16 -13
-17 -16 -4 -25 10 -7 12 -12 4 -17 -18 -13 -33 -48 -25 -61 5 -9 12 -8 27 3
13 10 15 14 5 15 -26 0 -2 13 29 15 30 3 30 2 30 -46 0 -44 -2 -49 -23 -49
-19 0 -23 -5 -23 -34 0 -21 -10 -47 -27 -69 -28 -36 -36 -64 -16 -51 7 4 10 1
7 -6 -2 -7 -17 -14 -32 -16 -36 -4 -35 -2 -40 -60 -3 -27 -8 -79 -11 -116 -9
-90 -20 -104 -76 -92 -35 7 -45 14 -47 32 -2 12 1 22 7 22 6 0 11 -4 11 -10 0
-5 6 -10 14 -10 8 0 14 6 13 13 0 6 1 23 2 37 1 20 3 22 11 10 8 -12 10 -11
10 6 0 11 3 24 7 28 6 6 57 235 68 305 8 53 38 158 52 184 9 18 13 42 10 63
-4 24 0 40 14 58 10 13 19 33 19 43 0 25 62 145 78 151 7 2 12 -5 12 -17 0
-11 5 -23 10 -26 18 -11 10 -35 -12 -36 l-23 -2 22 -4 c13 -2 29 -13 36 -23
12 -17 14 -17 34 5 11 13 18 26 15 29 -3 3 3 8 12 12 9 3 16 15 16 27 0 26 33
96 43 90 4 -2 7 -12 7 -22z m-75 -1 c-3 -5 -13 -10 -21 -10 -8 0 -14 5 -14 10
0 6 9 10 21 10 11 0 17 -4 14 -10z m-2565 -86 c0 -10 -6 -14 -15 -10 -10 4
-15 -1 -15 -14 0 -22 -8 -25 -30 -9 -13 9 -12 10 3 5 12 -4 17 0 17 13 0 17
12 28 33 30 4 1 7 -6 7 -15z m-572 -6 c17 -21 62 -140 69 -180 14 -88 -53 -14
-81 89 -23 83 -17 126 12 91z m3472 -45 c0 -9 6 -24 14 -32 20 -23 9 -91 -14
-91 -10 0 -22 6 -27 13 -12 14 -12 96 0 115 12 17 27 15 27 -5z m60 7 c0 -5
-2 -10 -4 -10 -3 0 -8 5 -11 10 -3 6 -1 10 4 10 6 0 11 -4 11 -10z m-220 -11
c0 -4 -4 -9 -9 -11 -13 -4 14 -104 27 -101 6 1 16 -4 22 -12 7 -8 20 -15 28
-15 13 0 14 -2 3 -12 -11 -10 -14 -10 -18 0 -3 6 -12 12 -20 12 -13 0 -13 -3
-3 -15 11 -14 7 -19 -12 -16 -5 0 -8 -6 -8 -15 0 -11 -6 -15 -20 -11 -17 4
-21 -1 -26 -33 -5 -29 -12 -40 -27 -42 -24 -4 -36 -28 -13 -28 9 0 16 -7 16
-15 0 -8 -2 -15 -4 -15 -2 0 -13 -3 -23 -7 -16 -6 -16 -5 -4 10 12 15 10 17
-17 17 -32 0 -50 14 -32 25 5 3 10 19 10 34 0 15 7 36 15 47 8 10 15 29 15 42
0 12 9 31 20 42 11 11 20 33 20 49 0 47 15 77 39 77 12 0 21 -3 21 -7z m-2840
-3 c0 -3 -4 -8 -10 -11 -5 -3 -10 -1 -10 4 0 6 5 11 10 11 6 0 10 -2 10 -4z
m-743 -48 c-3 -7 -5 -2 -5 12 0 14 2 19 5 13 2 -7 2 -19 0 -25z m3864 -133 c5
-29 3 -43 -7 -51 -8 -6 -14 -17 -14 -24 0 -7 -3 -10 -7 -7 -7 8 -13 108 -7
119 12 19 30 0 35 -37z m-156 -35 c-1 -32 -44 -122 -55 -115 -5 3 -6 13 -3 22
4 11 2 14 -8 11 -9 -3 -14 -19 -14 -43 0 -32 -4 -38 -23 -41 -29 -5 -40 21
-18 45 19 21 21 37 4 45 -7 3 -3 3 10 0 25 -6 25 -5 13 28 -12 34 2 62 35 69
46 11 59 6 59 -21z m-3297 -9 c26 -5 38 -12 41 -26 6 -34 51 -84 92 -102 21
-9 39 -20 39 -25 0 -4 14 -8 30 -8 32 0 36 -12 31 -83 -6 -75 -99 -164 -115
-109 -2 9 -10 44 -16 77 -7 33 -21 72 -31 87 -11 14 -19 31 -19 37 0 6 -4 11
-10 11 -5 0 -10 7 -10 15 0 8 -4 15 -8 15 -12 0 -75 90 -75 106 0 8 -4 14 -9
14 -4 0 -8 5 -8 11 0 8 5 7 16 -1 8 -8 32 -16 52 -19z m-1318 3 c0 -8 -4 -12
-10 -9 -5 3 -10 10 -10 16 0 5 5 9 10 9 6 0 10 -7 10 -16z m2345 -34 c22 -9
22 -10 -17 -16 -21 -3 -28 -1 -28 11 0 17 14 18 45 5z m2451 -57 c-12 -12 -29
15 -21 34 7 17 8 16 18 -5 5 -12 7 -25 3 -29z m-43 -7 c29 -1 32 -21 8 -45
-21 -21 -47 -29 -36 -11 3 6 1 10 -4 10 -6 0 -11 14 -11 31 0 20 4 28 11 23 7
-4 21 -7 32 -8z m-1213 -12 c0 -8 -4 -12 -10 -9 -5 3 -10 10 -10 16 0 5 5 9
10 9 6 0 10 -7 10 -16z m1123 -41 c-10 -4 -10 -10 2 -26 14 -20 12 -24 -22
-59 -20 -21 -44 -38 -53 -38 -9 0 -29 -13 -43 -30 -15 -16 -34 -30 -42 -30 -8
0 -15 -7 -15 -15 0 -19 -36 -37 -63 -32 l-22 4 23 8 c12 4 22 14 22 22 0 7 38
52 85 99 47 48 85 90 85 94 0 5 10 10 23 12 25 4 39 -2 20 -9z m-314 0 c-13
-3 -15 -13 -11 -49 3 -32 0 -49 -11 -62 -8 -9 -17 -28 -19 -42 -4 -33 -34 -39
-40 -8 -8 42 7 149 22 158 8 6 29 9 45 9 17 -1 23 -3 14 -6z m-2711 -15 c-6
-18 -28 -21 -28 -4 0 9 7 16 16 16 9 0 14 -5 12 -12z m2041 -104 c-19 -23 -22
-9 -7 32 13 36 13 37 16 10 2 -15 -2 -34 -9 -42z m-565 40 c3 -8 2 -12 -4 -9
-6 3 -10 10 -10 16 0 14 7 11 14 -7z m1659 -16 c5 -18 8 -19 21 -9 18 15 21
10 29 -51 4 -29 1 -39 -14 -50 -22 -15 -16 -60 6 -52 22 9 43 -37 48 -104 2
-35 9 -68 16 -75 6 -6 11 -19 11 -29 0 -15 -9 -17 -74 -14 -85 4 -96 8 -96 41
0 41 -21 75 -47 75 -25 0 -32 -27 -12 -47 16 -16 4 -43 -19 -43 -10 0 -22 -4
-28 -10 -15 -15 -87 7 -111 34 -12 14 -28 23 -35 21 -27 -10 -49 18 -42 53 4
17 10 32 15 32 5 0 9 6 9 14 0 8 16 20 35 27 19 7 35 19 35 26 0 7 9 13 20 13
32 0 58 21 52 42 -2 10 0 18 6 18 5 0 12 -9 15 -20 3 -12 14 -20 27 -20 31 0
48 -22 52 -65 2 -28 14 -49 44 -81 45 -47 73 -56 81 -24 3 11 9 17 14 14 5 -3
9 8 9 25 0 16 -4 32 -9 35 -5 4 -7 -4 -4 -16 4 -21 3 -22 -10 -5 -8 9 -19 17
-26 17 -6 0 -11 4 -11 10 0 5 -7 7 -15 4 -11 -5 -15 1 -15 20 0 14 -4 26 -10
26 -5 0 -10 14 -10 31 0 17 -9 42 -20 56 -14 19 -17 29 -10 38 6 7 9 19 8 26
-2 8 7 15 20 17 12 2 22 8 22 13 0 18 18 9 23 -13z m-2363 -68 c0 -5 -4 -10
-10 -10 -5 0 -10 5 -10 10 0 6 5 10 10 10 6 0 10 -4 10 -10z m-55 -40 c3 -5 2
-10 -4 -10 -5 0 -13 5 -16 10 -3 6 -2 10 4 10 5 0 13 -4 16 -10z m-60 -10 c-3
-5 -10 -10 -16 -10 -5 0 -9 5 -9 10 0 6 7 10 16 10 8 0 12 -4 9 -10z m133 -33
c11 -27 11 -27 -16 -21 -36 9 -42 13 -42 29 0 16 32 37 41 27 3 -4 10 -19 17
-35z m1952 -14 c-1 -14 -27 -43 -39 -43 -15 0 -14 10 6 32 16 18 33 24 33 11z
m-2967 -45 c3 -18 9 -48 13 -65 6 -29 4 -33 -14 -33 -11 0 -23 8 -25 18 -14
50 -17 76 -12 93 10 30 32 22 38 -13z m891 24 c2 -4 0 -14 -5 -22 -8 -13 -10
-13 -18 0 -10 15 -6 30 9 30 5 0 11 -4 14 -8z m106 -13 c0 -6 8 -9 19 -6 15 3
21 -4 30 -33 24 -82 12 -100 -62 -89 -37 6 -53 5 -59 -4 -11 -16 -48 27 -48
57 0 41 54 66 63 29 2 -11 7 -3 11 20 6 27 13 37 27 37 11 0 19 -5 19 -11z
m-2456 -64 c-4 -8 -8 -15 -10 -15 -2 0 -4 7 -4 15 0 8 4 15 10 15 5 0 7 -7 4
-15z m2307 -20 c17 -37 11 -45 -31 -45 -23 0 -29 18 -17 53 12 36 29 34 48 -8z
m-981 -80 c74 -2 293 -7 485 -11 193 -3 388 -8 435 -9 47 -2 154 -4 238 -4
133 -1 152 -3 152 -17 0 -15 -36 -16 -417 -10 -1213 18 -1590 27 -1781 40 -18
1 -35 -1 -38 -6 -3 -5 -10 -5 -16 -1 -7 3 -46 7 -87 9 -190 6 -187 6 -161 14
25 8 944 5 1190 -5z m1575 -40 c59 -4 49 -8 -34 -14 -112 -8 -213 0 -219 17
-4 13 48 12 253 -3z m175 -12 c0 -12 -7 -14 -31 -9 -17 3 -44 6 -60 6 -56 0
-28 15 31 17 49 2 60 -1 60 -14z m174 11 c18 -7 12 -24 -10 -24 -8 0 -14 7
-14 15 0 17 2 18 24 9z m236 -14 c0 -13 -20 -13 -40 0 -12 8 -9 10 13 10 15 0
27 -4 27 -10z m-1047 -780 c34 -12 91 -35 127 -53 l65 -32 -3 -65 c-2 -35 -7
-69 -11 -75 -5 -5 -12 -33 -15 -60 -4 -28 -15 -61 -25 -74 l-18 -23 -1 31 c0
17 3 31 7 31 5 0 12 19 16 43 5 23 9 44 10 47 12 35 16 63 9 77 -4 10 -8 24
-9 31 0 8 -23 23 -50 35 -28 11 -52 23 -55 27 -3 3 -9 6 -15 7 -5 2 -35 12
-65 23 -89 31 -180 25 -276 -21 -22 -10 -45 -19 -51 -19 -5 0 -30 -10 -54 -23
-44 -23 -44 -24 -47 -84 -2 -44 1 -63 13 -73 17 -14 21 -35 5 -25 -16 10 -11
-23 10 -65 11 -22 19 -45 18 -52 -2 -7 3 -12 11 -10 9 2 11 -3 7 -13 -6 -18
17 -59 27 -49 3 4 6 -2 5 -12 0 -11 3 -28 7 -39 8 -20 8 -20 -13 -1 -12 11
-22 25 -22 33 0 7 -4 13 -8 13 -19 0 -66 141 -83 251 -19 126 1 156 131 197
19 6 62 21 95 32 73 25 165 21 258 -10z m-116 -83 c-1 -5 4 -12 12 -15 10 -3
12 0 8 12 -5 13 -3 16 11 12 9 -3 31 -8 47 -12 17 -4 32 -11 35 -15 3 -5 16
-10 29 -12 12 -2 26 -8 29 -14 4 -6 20 -15 35 -18 15 -4 27 -12 27 -18 0 -6
-3 -7 -7 -4 -6 7 -32 -21 -33 -35 0 -5 8 -8 17 -8 14 0 13 -3 -5 -16 -16 -11
-22 -25 -22 -50 0 -32 -2 -35 -22 -28 -47 14 -66 23 -73 33 -3 6 -14 11 -23
11 -24 -1 34 -43 67 -50 22 -4 26 -11 27 -43 1 -24 -4 -41 -14 -46 -9 -5 -13
-15 -9 -25 4 -11 1 -19 -11 -23 -24 -9 -62 -46 -62 -61 0 -8 -8 -10 -25 -6
-16 4 -34 0 -50 -10 -15 -10 -26 -12 -30 -6 -8 13 -42 13 -51 -1 -4 -8 0 -9
15 -4 13 4 21 2 21 -5 0 -15 -45 -8 -46 8 -1 6 -2 19 -3 28 -1 11 -7 15 -21
11 -15 -4 -22 1 -26 18 -4 15 -11 22 -20 18 -10 -4 -14 3 -14 26 0 17 -12 49
-26 70 -22 33 -24 46 -19 84 6 37 4 45 -10 51 -14 5 -16 4 -6 -7 7 -9 9 -31 5
-58 -5 -38 -2 -49 18 -74 21 -26 23 -33 12 -53 l-12 -23 -6 27 c-4 15 -16 39
-26 54 -19 27 -32 148 -16 153 5 2 1 17 -8 34 -20 39 -20 43 -1 43 8 0 14 -5
13 -11 -2 -6 3 -14 10 -16 7 -3 12 4 12 16 0 12 5 21 10 21 6 0 10 -6 10 -14
0 -8 4 -17 9 -20 5 -4 7 3 4 14 -6 21 6 29 48 34 13 1 32 6 42 10 9 5 23 6 31
3 8 -3 17 -1 20 6 4 7 4 2 2 -10 -2 -13 0 -23 5 -23 5 0 9 5 9 10 0 17 22 36
41 36 10 0 17 -4 16 -9z m3570 -93 c14 -4 23 -16 27 -39 7 -35 -1 -68 -14 -60
-4 3 -10 -8 -13 -23 -6 -27 16 -57 34 -47 13 9 21 -15 9 -30 -13 -16 -100 -18
-100 -2 0 5 -2 8 -5 5 -8 -8 6 -39 15 -33 5 3 13 -3 19 -12 9 -16 12 -16 21
-3 5 8 10 11 10 6 0 -8 -61 -84 -116 -145 -14 -16 19 164 36 192 6 11 14 37
16 60 3 22 9 48 14 57 5 10 7 20 3 23 -7 8 5 57 15 57 4 0 17 -3 29 -6z
m-3327 -226 c0 -5 -4 -6 -10 -3 -5 3 -10 0 -10 -7 0 -21 -27 -54 -36 -45 -5 4
-2 12 5 16 7 5 14 20 14 33 2 18 7 24 20 20 9 -2 17 -9 17 -14z m-425 -77 c-6
-5 -25 10 -25 20 0 5 6 4 14 -3 8 -7 12 -15 11 -17z m200 -61 c-28 -12 -37
-12 -30 0 3 6 16 10 28 9 21 0 21 -1 2 -9z m-215 -21 c0 -6 -4 -7 -10 -4 -5 3
-10 11 -10 16 0 6 5 7 10 4 6 -3 10 -11 10 -16z"/>
<path d="M5602 6428 c-18 -18 -15 -41 4 -34 9 3 18 6 20 6 2 0 4 9 4 20 0 23
-10 26 -28 8z"/>
<path d="M4796 6058 c-11 -42 -7 -45 54 -47 33 -1 60 2 60 7 0 5 -17 17 -37
28 -21 10 -39 22 -41 27 -7 15 -30 6 -36 -15z"/>
<path d="M4791 5925 c3 -2 22 -11 42 -20 30 -12 35 -13 31 -1 -3 8 -15 17 -27
20 -27 7 -52 8 -46 1z"/>
<path d="M4900 5880 c0 -5 5 -10 11 -10 5 0 7 5 4 10 -3 6 -8 10 -11 10 -2 0
-4 -4 -4 -10z"/>
<path d="M4956 5713 c-3 -4 -6 -20 -6 -38 0 -29 3 -32 51 -44 37 -10 54 -10
62 -2 6 6 20 12 32 13 11 1 -9 4 -45 7 -63 6 -65 7 -62 32 3 25 -18 46 -32 32z"/>
<path d="M4655 5460 c-16 -18 -16 -20 -1 -26 17 -7 66 20 66 36 0 18 -46 11
-65 -10z"/>
<path d="M4530 5050 c0 -5 -11 -12 -24 -16 -22 -5 -23 -9 -15 -37 13 -46 11
-88 -6 -121 -9 -16 -13 -31 -11 -34 11 -11 53 11 74 38 l24 30 -33 0 -32 0 7
48 c4 34 13 53 32 68 22 18 23 22 9 28 -22 8 -25 8 -25 -4z"/>
<path d="M4692 4985 c23 -47 35 -55 44 -30 4 9 13 13 24 10 9 -3 22 1 29 9 20
24 2 43 -46 50 -76 10 -75 11 -51 -39z"/>
<path d="M4517 4559 c7 -7 15 -10 18 -7 3 3 -2 9 -12 12 -14 6 -15 5 -6 -5z"/>
<path d="M5555 4561 c-6 -11 20 -33 28 -24 4 3 7 10 7 14 0 11 -29 19 -35 10z"/>
<path d="M4557 4554 c-6 -6 58 -98 88 -126 11 -11 54 -38 95 -60 41 -22 95
-51 119 -64 41 -22 45 -23 56 -7 11 14 9 22 -9 46 -35 48 -80 87 -98 87 -9 0
-19 4 -23 9 -3 5 -19 12 -35 16 -17 4 -30 11 -30 16 0 5 -7 9 -15 9 -9 0 -21
4 -28 10 -80 65 -105 79 -120 64z"/>
<path d="M4440 4152 c0 -5 15 -15 33 -22 46 -17 79 -31 98 -40 9 -5 38 -12 65
-15 27 -4 54 -10 59 -14 17 -10 55 -8 55 4 0 6 -17 17 -37 24 -21 8 -53 27
-71 42 -38 33 -50 36 -67 12 -10 -14 -18 -15 -57 -5 -25 7 -53 14 -62 18 -9 3
-16 2 -16 -4z"/>
<path d="M4760 4065 c0 -8 5 -15 10 -15 6 0 10 7 10 15 0 8 -4 15 -10 15 -5 0
-10 -7 -10 -15z"/>
<path d="M4820 4044 c0 -8 6 -17 14 -20 13 -5 55 -80 75 -136 6 -16 15 -28 20
-28 21 0 22 23 3 61 -14 27 -19 52 -15 74 6 37 -6 47 -64 58 -26 5 -33 3 -33
-9z"/>
<path d="M4201 3921 c-14 -10 -42 -22 -63 -25 -39 -6 -50 -22 -22 -33 18 -7
175 14 213 29 16 5 28 5 35 -2 15 -15 26 -12 26 9 0 15 -10 19 -57 24 -32 4
-69 9 -83 12 -16 3 -34 -2 -49 -14z"/>
<path d="M4436 3915 c4 -9 11 -14 16 -13 15 5 11 23 -6 26 -11 2 -14 -2 -10
-13z"/>
<path d="M4800 3631 c0 -6 6 -11 14 -11 8 0 16 -7 20 -15 3 -9 18 -15 39 -15
19 0 40 7 47 15 7 8 11 15 9 16 -2 0 -15 2 -29 4 -14 1 -42 6 -62 10 -26 5
-38 4 -38 -4z"/>
<path d="M4093 3575 c-7 -20 20 -50 36 -41 17 11 13 34 -9 46 -16 9 -22 8 -27
-5z"/>
<path d="M4030 3189 c0 -5 5 -7 10 -4 6 3 10 8 10 11 0 2 -4 4 -10 4 -5 0 -10
-5 -10 -11z"/>
<path d="M8010 2351 c0 -11 -8 -22 -17 -24 -14 -4 -12 -5 5 -6 17 -1 22 4 22
24 0 14 -2 25 -5 25 -3 0 -5 -9 -5 -19z"/>
<path d="M8125 2320 c-4 -6 3 -10 14 -10 25 0 27 6 6 13 -8 4 -17 2 -20 -3z"/>
<path d="M4405 7021 c-3 -6 -16 -11 -28 -11 -29 0 -53 -35 -31 -44 23 -9 34
-7 34 5 0 6 10 19 23 29 12 10 19 21 16 25 -4 3 -10 2 -14 -4z"/>
<path d="M4895 6881 c-3 -5 -1 -12 5 -16 5 -3 10 1 10 9 0 18 -6 21 -15 7z"/>
<path d="M4930 6842 c0 -14 11 -21 26 -15 21 8 17 23 -6 23 -11 0 -20 -4 -20
-8z"/>
<path d="M5250 4745 c0 -8 5 -15 10 -15 6 0 10 7 10 15 0 8 -4 15 -10 15 -5 0
-10 -7 -10 -15z"/>
<path d="M5180 4336 c0 -9 5 -16 10 -16 6 0 10 4 10 9 0 6 -4 13 -10 16 -5 3
-10 -1 -10 -9z"/>
<path d="M5185 3959 c-4 -6 -5 -13 -2 -16 7 -7 27 6 27 18 0 12 -17 12 -25 -2z"/>
<path d="M5280 3459 c0 -5 5 -7 10 -4 6 3 10 8 10 11 0 2 -4 4 -10 4 -5 0 -10
-5 -10 -11z"/>
<path d="M5468 4338 c-4 -8 -3 -30 1 -49 l7 -34 6 29 c7 35 -5 79 -14 54z"/>
<path d="M5920 3895 c0 -30 3 -55 8 -55 4 0 8 25 10 55 2 34 -1 55 -7 55 -7 0
-11 -23 -11 -55z"/>
<path d="M5951 3884 c0 -11 3 -14 6 -6 3 7 2 16 -1 19 -3 4 -6 -2 -5 -13z"/>
<path d="M5761 3618 c-10 -28 -5 -39 14 -31 17 6 21 53 5 53 -6 0 -14 -10 -19
-22z"/>
<path d="M5457 3150 c-3 -11 -1 -23 4 -26 5 -3 9 6 9 20 0 31 -6 34 -13 6z"/>
<path d="M6247 3773 c-11 -10 -8 -43 3 -43 6 0 10 7 10 15 0 8 5 15 11 15 5 0
7 5 4 10 -7 12 -19 13 -28 3z"/>
<path d="M6160 3509 c-7 -16 -14 -45 -16 -64 -2 -28 1 -33 17 -32 16 1 19 7
15 39 -3 21 0 40 6 44 7 4 5 9 -3 15 -10 6 -11 9 -1 9 6 0 12 5 12 10 0 21
-18 9 -30 -21z"/>
<path d="M6141 3384 c0 -11 3 -14 6 -6 3 7 2 16 -1 19 -3 4 -6 -2 -5 -13z"/>
<path d="M6721 3264 c0 -11 3 -14 6 -6 3 7 2 16 -1 19 -3 4 -6 -2 -5 -13z"/>
<path d="M6850 3240 c0 -5 4 -10 9 -10 6 0 13 5 16 10 3 6 -1 10 -9 10 -9 0
-16 -4 -16 -10z"/>
<path d="M6654 3173 c0 -16 11 -39 24 -53 l22 -25 -6 35 c-4 19 -11 37 -16 38
-4 2 -8 10 -8 18 0 8 -4 14 -9 14 -5 0 -8 -12 -7 -27z"/>
<path d="M4408 2123 c12 -2 30 -2 40 0 9 3 -1 5 -23 4 -22 0 -30 -2 -17 -4z"/>
<path d="M4225 2096 c-18 -13 -18 -14 8 -9 15 3 24 9 21 14 -7 12 -7 12 -29
-5z"/>
<path d="M4460 2101 c0 -5 9 -11 20 -14 11 -3 24 -16 29 -29 10 -23 10 -23 10
-1 1 12 -9 29 -21 37 -25 18 -38 20 -38 7z"/>
<path d="M4501 2023 c-1 -6 -4 -20 -7 -30 -5 -17 -5 -17 6 0 6 10 9 23 6 30
-3 9 -5 9 -5 0z"/>
<path d="M4260 2011 c0 -18 20 -22 65 -15 63 9 56 24 -10 24 -30 0 -55 -4 -55
-9z"/>
<path d="M4415 1999 c-10 -15 3 -25 16 -12 7 7 7 13 1 17 -6 3 -14 1 -17 -5z"/>
<path d="M4450 1980 c0 -5 5 -10 10 -10 6 0 10 5 10 10 0 6 -4 10 -10 10 -5 0
-10 -4 -10 -10z"/>
<path d="M4333 1906 c4 -11 -3 -16 -26 -18 -23 -2 -32 -8 -34 -23 -2 -11 0
-15 3 -8 6 14 66 7 105 -13 15 -7 29 -10 33 -7 3 4 6 2 6 -4 0 -17 -22 -31
-63 -38 -20 -4 -40 -11 -43 -16 -7 -12 8 -11 62 2 36 9 51 20 71 51 14 21 22
42 18 46 -4 4 -10 1 -12 -5 -6 -18 -68 -16 -83 2 -7 8 -10 22 -6 30 4 10 -1
15 -15 15 -14 0 -19 -5 -16 -14z"/>
<path d="M4351 1833 c7 -10 14 -19 15 -21 1 -1 9 0 18 4 14 5 13 9 -10 20 -35
18 -39 18 -23 -3z"/>
<path d="M7900 1955 c1 -26 2 -28 11 -12 8 14 8 22 0 30 -8 8 -11 3 -11 -18z"/>
</g>
</svg>
